<?xml version="1.0" standalone="no"?>
<!DOCTYPE svg PUBLIC "-//W3C//DTD SVG 20010904//EN"
 "http://www.w3.org/TR/2001/REC-SVG-20010904/DTD/svg10.dtd">
<svg version="1.0" xmlns="http://www.w3.org/2000/svg"
 width="403.000000pt" height="403.000000pt" viewBox="0 0 403.000000 403.000000"
 preserveAspectRatio="xMidYMid meet">
<metadata>
Created by potrace 1.14, written by Peter Selinger 2001-2017
</metadata>
<g transform="translate(0.000000,403.000000) scale(0.100000,-0.100000)"
fill="#000000" stroke="none">
<path d="M1185 3216 l0 -815 70 -71 c102 -104 96 -95 74 -113 -11 -10 -23 -17
-27 -17 -4 0 -23 -15 -42 -33 -19 -17 -34 -30 -35 -28 0 3 -9 0 -20 -6 -17
-10 -19 -23 -20 -150 -1 -76 -5 -145 -9 -155 -4 -9 -19 -20 -34 -24 -42 -12
-61 -19 -112 -42 -19 -9 -38 -15 -42 -14 -5 1 -8 -2 -8 -6 0 -4 -15 -16 -33
-26 -40 -24 -47 -30 -124 -107 -35 -34 -63 -69 -64 -78 0 -9 -1 -78 -2 -154
-2 -130 6 -184 20 -147 9 23 123 133 173 166 64 43 184 97 194 87 3 -3 8 1 12
10 3 9 11 14 18 11 8 -3 11 -42 11 -132 l0 -127 -55 -27 c-30 -14 -57 -26 -60
-26 -14 1 -50 -15 -50 -22 0 -5 -13 -11 -30 -15 -16 -4 -30 -11 -30 -16 0 -5
-6 -9 -12 -9 -29 -1 -187 -155 -189 -185 0 -5 -2 -82 -3 -170 -2 -88 -7 -171
-13 -185 -6 -14 -11 -28 -12 -32 0 -5 -2 -10 -2 -13 -1 -3 -3 -9 -4 -15 -1 -5
-3 -15 -4 -21 -2 -19 -24 -4 -28 19 -8 55 -10 62 -16 68 -4 4 -7 16 -7 26 0
10 -5 18 -11 18 -5 0 -8 4 -4 9 3 5 1 12 -5 16 -15 9 -25 -24 -11 -38 6 -6 11
-22 11 -35 0 -13 3 -21 8 -19 4 3 8 -11 10 -31 1 -20 6 -38 11 -42 4 -3 7 -13
5 -22 -1 -10 2 -18 7 -18 5 0 8 -3 8 -8 -1 -4 -1 -15 0 -26 2 -27 26 -4 29 28
1 13 11 47 22 75 11 28 17 51 15 51 -3 0 1 13 10 30 8 16 15 32 15 35 0 3 0 8
0 13 0 4 22 32 50 62 27 30 50 51 50 47 0 -4 9 1 19 11 31 27 43 36 94 65 26
15 47 25 47 21 0 -3 6 -1 14 5 8 7 24 14 35 16 12 2 36 11 53 20 17 8 32 15
33 15 1 0 1 -55 0 -122 -1 -84 -7 -134 -17 -158 -11 -27 -12 -41 -4 -60 11
-25 36 -57 36 -45 0 11 38 -30 41 -45 2 -8 -1 -25 -5 -38 -6 -18 -12 -21 -29
-16 -24 7 -38 24 -31 36 3 4 -2 5 -9 2 -18 -6 -17 -22 3 -49 19 -25 70 -33 70
-10 0 8 5 14 11 12 16 -3 21 62 8 95 -6 14 -23 32 -39 38 -32 13 -46 49 -26
68 11 11 17 11 34 1 26 -16 40 -5 21 17 -11 14 -10 17 4 26 10 5 26 19 37 30
11 12 20 18 20 14 0 -5 29 21 65 56 36 36 65 68 65 72 0 4 9 16 20 28 11 12
26 34 32 50 7 15 17 28 21 28 5 0 6 4 2 9 -3 5 -1 12 5 16 5 3 10 15 10 26 0
10 5 19 11 19 5 0 8 4 5 8 -6 9 75 175 97 200 8 10 33 37 56 61 23 24 41 44
41 45 0 6 241 246 247 246 9 0 316 -313 350 -357 32 -43 77 -125 88 -163 12
-42 76 -168 97 -189 10 -12 16 -21 14 -21 -11 0 120 -127 154 -151 53 -36 59
-43 48 -62 -5 -11 -5 -17 0 -17 8 0 9 -50 1 -70 -1 -3 0 -9 1 -15 6 -28 4 -85
-3 -85 -4 0 -3 -9 3 -20 20 -38 27 -12 26 105 -1 90 2 114 12 110 10 -4 13 24
11 131 -1 134 3 162 21 134 6 -8 10 -11 10 -6 0 6 5 5 12 -2 7 -7 18 -12 24
-12 7 0 25 -5 41 -11 15 -6 30 -11 33 -11 3 0 17 -9 31 -19 14 -10 29 -16 33
-12 3 3 6 1 6 -5 0 -7 4 -12 10 -12 13 0 42 -23 119 -97 l65 -61 1 -59 c1 -33
5 -65 9 -71 4 -7 3 -12 -1 -12 -5 0 -8 -21 -7 -48 3 -63 2 -62 17 -56 13 5 18
44 5 44 -4 0 -5 7 -1 16 9 25 10 77 2 101 -5 14 -3 25 6 33 8 7 12 17 8 23 -4
6 -7 79 -8 162 0 148 -1 151 -28 186 -26 35 -113 119 -123 119 -3 0 -14 9 -26
20 -12 10 -24 17 -28 15 -5 -3 -11 2 -14 10 -3 8 -9 14 -13 14 -4 -1 -38 12
-75 29 -37 18 -73 32 -80 32 -7 0 -21 7 -31 14 -15 12 -18 32 -19 137 -1 116
0 124 18 125 10 0 28 -4 39 -10 11 -6 22 -11 25 -11 3 -1 22 -9 44 -18 21 -9
42 -17 47 -17 5 0 9 -4 9 -9 0 -5 10 -11 23 -15 12 -3 32 -14 44 -26 12 -11
25 -20 29 -20 10 0 144 -140 144 -151 0 -5 4 -9 8 -9 11 0 9 172 -2 189 -6 10
-5 12 3 7 8 -5 10 12 8 64 l-4 70 -66 70 c-37 39 -70 70 -74 70 -5 0 -21 11
-36 25 -15 14 -27 23 -27 20 0 -4 -13 3 -29 14 -16 12 -34 21 -40 21 -6 0 -11
5 -11 12 0 6 -3 9 -6 5 -6 -6 -111 30 -131 46 -9 7 -12 48 -10 152 l2 143 -52
33 c-29 19 -53 38 -53 42 0 5 -3 6 -7 4 -5 -2 -18 7 -30 20 l-23 24 80 81 80
81 -1 813 0 814 -802 0 -802 0 0 -814z"/>
<path d="M1995 670 c3 -5 0 -10 -7 -10 -8 0 -9 -3 -3 -8 6 -4 10 -55 10 -117
0 -62 -4 -113 -10 -117 -7 -5 -7 -8 0 -8 6 0 9 -19 6 -46 -2 -37 0 -45 10 -40
8 4 6 1 -3 -7 -10 -8 -15 -17 -12 -20 4 -3 6 -50 6 -104 -1 -66 3 -100 11
-105 8 -5 5 -8 -8 -8 -11 0 -15 -4 -10 -8 6 -4 10 -18 10 -31 0 -15 6 -25 17
-27 13 -1 17 8 20 48 1 27 -1 53 -7 59 -6 6 -6 9 0 9 6 0 10 47 10 110 0 61
-4 110 -8 110 -5 0 -5 5 -2 10 10 16 11 190 2 190 -5 0 -5 5 -1 12 4 7 7 25 7
40 -1 15 -2 39 -2 53 -1 18 -7 25 -22 25 -11 0 -17 -4 -14 -10z"/>
<path d="M136 661 c-4 -6 -6 -56 -5 -111 1 -82 5 -105 20 -123 10 -12 18 -18
19 -13 0 6 7 1 15 -10 9 -12 14 -14 15 -6 0 7 4 11 9 8 14 -9 41 4 41 19 0 7
5 15 11 17 6 2 11 45 12 111 2 90 0 107 -13 107 -12 0 -15 -15 -13 -87 3 -117
-9 -142 -66 -134 -19 2 -36 117 -19 127 5 3 5 11 1 17 -4 7 -8 27 -8 44 -1 36
-9 50 -19 34z"/>
<path d="M342 664 c3 -3 2 -20 -2 -39 -5 -20 -4 -33 1 -29 11 7 11 1 -1 -30
-5 -14 -6 -27 -2 -30 4 -3 5 -32 2 -65 -3 -33 -4 -58 -1 -56 2 3 9 1 15 -4 8
-7 11 16 10 80 0 72 3 89 15 89 8 0 12 -3 8 -6 -6 -6 58 -104 76 -115 5 -4 6
-12 3 -18 -4 -6 0 -11 9 -11 10 0 13 -5 9 -12 -6 -10 -5 -10 7 -1 11 9 14 26
9 72 -4 38 -2 62 5 65 5 2 4 5 -3 5 -10 1 -10 6 -2 21 6 11 7 20 3 20 -5 0 -8
13 -8 30 0 16 -4 30 -10 30 -13 0 -14 -153 0 -162 5 -4 0 -6 -13 -5 -12 0 -22
7 -22 15 0 12 -44 78 -61 92 -3 3 -14 20 -23 38 -9 17 -19 32 -23 32 -3 0 -4
-2 -1 -6z"/>
<path d="M831 538 c0 -71 3 -128 7 -129 4 0 21 -2 38 -3 61 -6 77 26 17 34
-36 5 -37 6 -37 45 0 39 1 40 37 43 39 3 46 14 23 37 -8 9 -17 10 -23 4 -17
-17 -39 0 -38 31 1 29 15 56 15 29 0 -11 2 -11 10 1 7 11 10 11 10 2 0 -10 5
-10 21 -2 32 18 17 34 -33 35 l-46 0 -1 -127z"/>
<path d="M994 655 c-9 -26 -10 -72 -3 -92 5 -14 4 -23 -4 -27 -9 -3 -8 -7 2
-14 11 -8 11 -10 0 -15 -12 -5 -12 -6 0 -6 11 -1 11 -4 1 -16 -10 -12 -10 -15
1 -15 11 0 11 -2 2 -8 -15 -10 -5 -52 12 -52 9 0 11 15 9 50 -2 29 2 52 8 56
7 4 8 3 4 -4 -4 -7 -3 -12 1 -12 5 0 19 -23 32 -50 16 -35 27 -48 34 -41 11
11 -21 91 -35 91 -16 0 -7 28 15 44 17 13 22 26 21 54 -1 20 -7 38 -13 40 -6
2 -11 9 -11 15 0 15 -71 16 -76 2z m72 -49 c3 -21 -14 -50 -33 -53 -19 -4 -25
29 -14 75 1 2 11 2 23 0 12 -2 22 -11 24 -22z"/>
<path d="M1322 657 c-6 -7 -7 -18 -3 -26 5 -8 5 -27 1 -42 -5 -17 -5 -31 1
-35 5 -3 7 -10 3 -15 -15 -25 -2 -145 15 -135 9 6 9 252 0 260 -3 4 -11 1 -17
-7z"/>
<path d="M1419 661 c-6 -24 -4 -249 2 -246 4 3 9 0 11 -6 3 -9 10 -9 27 1 18
9 22 9 16 0 -8 -13 -7 -13 37 9 72 37 67 205 -7 239 -19 9 -25 9 -25 -1 0 -7
-3 -8 -8 -2 -8 11 -51 16 -53 6z m61 -30 c0 11 2 11 10 -1 5 -8 10 -10 10 -5
0 6 9 -3 19 -19 11 -17 18 -33 15 -38 -3 -4 1 -8 8 -8 8 0 9 -3 3 -8 -5 -4
-11 -25 -12 -46 -2 -40 -17 -57 -58 -63 -30 -5 -43 20 -35 72 4 25 4 45 0 45
-7 0 -3 39 6 69 3 11 7 11 19 1 12 -10 15 -10 15 1z"/>
<path d="M1812 661 c-5 -3 -8 -58 -7 -121 2 -138 2 -140 16 -140 5 0 7 5 3 11
-5 8 -1 8 14 0 25 -13 35 -14 28 -3 -3 5 1 9 9 9 8 0 15 -5 15 -10 0 -6 13 4
30 23 16 18 27 37 24 41 -3 5 -1 9 4 9 8 0 8 60 0 117 -5 34 -43 63 -87 66
-23 2 -45 1 -49 -2z m62 -35 c23 9 52 -29 55 -74 2 -34 -13 -99 -23 -102 -24
-7 -76 -9 -77 -3 0 4 -2 18 -3 31 -2 12 1 22 6 22 5 0 7 4 3 9 -12 20 -8 113
6 122 8 5 15 4 17 -1 2 -5 9 -7 16 -4z"/>
<path d="M2122 644 c-24 -50 -12 -83 39 -116 35 -22 43 -71 15 -88 -17 -11
-22 -9 -39 11 -15 19 -20 20 -28 8 -6 -9 -4 -18 6 -25 8 -6 15 -16 15 -22 0
-21 55 -7 73 18 29 41 3 130 -38 130 -15 0 -32 40 -27 63 4 21 38 23 46 2 8
-22 23 -18 21 5 -2 25 -5 28 -41 34 -26 5 -33 2 -42 -20z"/>
<path d="M2442 646 c-6 -13 -6 -29 -2 -36 5 -8 6 -18 3 -24 -4 -5 -5 -30 -4
-55 1 -25 1 -63 1 -83 0 -35 14 -62 19 -35 5 32 5 249 0 253 -3 2 -11 -7 -17
-20z"/>
<path d="M2595 635 c-16 -21 -34 -46 -39 -56 -15 -31 -22 -22 -21 28 0 25 -5
48 -11 50 -7 2 -11 -34 -10 -118 1 -83 5 -124 13 -126 8 -3 11 14 9 56 -1 34
2 61 6 61 4 0 8 -7 8 -15 0 -8 4 -15 8 -15 5 0 17 -18 28 -39 10 -22 27 -42
36 -44 21 -6 15 11 -29 80 l-33 52 36 46 c44 58 43 94 -1 40z"/>
<path d="M2919 660 c-12 -7 -14 -31 -14 -127 1 -116 1 -118 23 -116 12 2 22
-2 22 -8 0 -6 5 -7 13 -2 6 4 20 6 29 5 13 -2 16 1 12 12 -4 10 -19 16 -40 16
-34 0 -34 0 -34 46 0 27 4 43 10 39 6 -3 10 -1 10 5 0 7 8 9 20 5 11 -3 25 -3
30 0 19 12 -8 33 -34 28 -31 -6 -48 22 -34 57 5 13 12 20 16 15 10 -14 32 -17
32 -5 0 6 5 9 11 8 6 -2 14 4 17 12 2 8 1 12 -3 8 -5 -4 -14 -3 -22 3 -9 9
-13 8 -13 0 0 -8 -6 -9 -18 -2 -10 5 -24 6 -33 1z"/>
<path d="M3049 655 c-3 -36 -4 -40 -12 -52 -4 -6 -3 -15 3 -18 8 -5 8 -11 0
-20 -8 -10 -8 -15 0 -20 8 -5 7 -11 -2 -23 -10 -11 -10 -16 -1 -19 8 -3 9 -12
3 -29 -6 -14 -6 -24 0 -24 5 0 7 -9 5 -20 -2 -11 1 -23 7 -26 7 -4 8 -2 4 4
-4 7 -2 12 3 12 7 0 9 19 7 50 -4 39 -1 50 10 50 8 0 14 -5 14 -10 0 -21 68
-112 75 -100 4 6 -9 36 -29 65 -41 63 -44 83 -16 113 12 12 18 22 15 22 -3 0
4 10 15 23 20 20 20 22 4 26 -10 2 -20 -2 -22 -8 -2 -6 -10 -18 -19 -26 -8 -8
-11 -15 -6 -15 4 0 0 -5 -10 -11 -9 -6 -15 -14 -12 -20 4 -5 0 -9 -8 -9 -11 0
-14 10 -11 37 2 20 -1 43 -6 52 -8 14 -10 13 -11 -4z"/>
<path d="M3297 662 c-28 -3 -29 -5 -25 -53 1 -27 1 -49 -2 -49 -3 0 -4 -31 -2
-69 3 -48 8 -71 18 -75 11 -4 13 4 10 38 -3 23 0 49 5 57 5 8 9 9 9 3 0 -25
53 -105 62 -96 7 7 1 26 -16 54 -28 48 -33 69 -14 66 17 -4 37 43 31 74 -6 33
-39 54 -76 50z m41 -35 c15 -10 16 -57 1 -57 -5 0 -7 -4 -4 -10 7 -12 -15 -13
-31 -2 -9 6 -10 30 -5 74 1 8 22 5 39 -5z"/>
<path d="M3620 660 c-2 -8 -4 -53 -5 -100 -4 -126 -2 -120 -30 -120 -25 0 -30
-7 -17 -25 8 -12 54 -16 47 -5 -3 4 2 10 10 14 8 3 12 12 9 21 -4 9 -1 15 7
15 9 0 10 3 4 8 -11 8 -15 152 -5 152 4 0 7 7 7 15 0 8 -4 12 -8 9 -4 -2 -10
4 -12 13 -4 14 -5 14 -7 3z"/>
<path d="M3693 658 c-4 -7 -9 -24 -10 -38 -2 -14 -4 -36 -6 -50 -2 -14 0 -33
5 -42 5 -10 4 -19 -2 -23 -6 -4 -7 -12 -3 -18 4 -7 8 -24 8 -39 0 -16 5 -28
10 -28 6 0 10 49 11 125 1 69 0 125 -2 125 -1 0 -6 -6 -11 -12z"/>
<path d="M565 538 c0 -87 4 -123 13 -126 9 -3 12 27 12 122 0 96 -3 126 -13
126 -10 0 -13 -29 -12 -122z"/>
<path d="M1665 641 c-3 -12 -9 -33 -11 -48 -3 -15 -10 -33 -16 -40 -6 -7 -7
-13 -3 -13 4 0 2 -6 -4 -14 -6 -8 -11 -18 -9 -22 1 -5 -3 -19 -10 -31 -7 -13
-10 -23 -6 -23 3 0 1 -7 -6 -15 -9 -11 -9 -15 -1 -15 7 0 9 -6 5 -12 -4 -7 0
-6 9 2 14 13 23 39 26 74 1 5 8 3 16 -4 9 -8 15 -8 15 -2 0 6 9 10 20 9 14 -1
25 -14 36 -42 8 -23 22 -42 29 -42 10 0 11 5 4 19 -5 10 -7 18 -3 18 3 0 1 6
-5 14 -7 8 -14 29 -16 47 -3 18 -8 35 -13 38 -5 3 -8 14 -6 24 1 9 -2 17 -7
17 -6 0 -8 4 -4 9 3 5 0 13 -6 16 -5 4 -8 13 -5 20 3 8 -1 19 -9 25 -10 9 -15
6 -20 -9z m30 -96 c0 -30 -12 -40 -32 -27 -10 7 -10 14 0 35 15 34 31 30 32
-8z"/>
<path d="M2255 651 c3 -5 0 -13 -6 -17 -8 -4 -7 -9 2 -15 12 -8 11 -11 -1 -19
-12 -8 -12 -10 -1 -10 10 0 11 -3 2 -14 -9 -11 -9 -15 1 -20 10 -5 10 -7 0
-12 -6 -3 -10 -9 -8 -13 3 -4 6 -35 7 -69 2 -47 5 -59 15 -52 7 7 11 30 9 61
-2 41 1 51 17 60 16 9 19 8 13 -3 -6 -10 -5 -10 4 -2 7 6 23 9 36 7 20 -4 23
-11 23 -46 0 -70 2 -77 15 -72 9 4 12 38 12 125 0 89 -3 120 -12 120 -13 0
-15 -7 -15 -65 -1 -33 2 -32 -83 -26 -6 1 -10 21 -9 46 1 33 -2 45 -13 45 -8
0 -12 -4 -8 -9z"/>
<path d="M2671 535 c0 -74 3 -125 9 -125 6 0 10 6 10 13 0 6 3 23 7 36 5 19 3
22 -8 16 -11 -7 -12 -6 -4 6 6 8 10 46 9 84 -2 93 -2 95 -14 95 -5 0 -9 -52
-9 -125z"/>
<path d="M3446 596 c-10 -33 -18 -69 -19 -78 -1 -10 -5 -18 -9 -18 -4 0 -8 -7
-8 -15 0 -9 -7 -29 -15 -45 -11 -21 -12 -31 -3 -36 7 -5 8 -3 3 6 -6 10 -4 12
7 8 11 -5 18 4 27 32 10 34 15 38 39 35 15 -2 30 -4 33 -4 7 -1 22 -41 20 -53
-1 -5 4 -8 10 -8 5 0 7 -5 3 -12 -4 -7 -3 -8 5 -4 13 9 9 52 -8 83 -5 11 -7
23 -4 27 3 3 0 6 -7 6 -7 0 -11 3 -7 6 3 3 -3 30 -13 59 -10 29 -16 55 -14 58
3 2 -1 7 -9 10 -9 3 -19 -13 -31 -57z m44 -63 c0 -18 -4 -33 -10 -33 -5 0 -10
5 -10 11 0 5 -4 7 -10 4 -14 -8 -13 18 2 50 14 31 28 16 28 -32z"/>
<path d="M3802 648 c0 -7 -3 -25 -6 -40 -4 -15 -2 -30 4 -33 5 -3 10 0 10 7 1
9 3 9 9 -2 20 -35 22 -58 5 -64 -24 -9 -36 2 -24 24 7 13 6 21 -5 30 -8 7 -16
10 -16 6 -1 -3 -2 -14 -4 -23 -1 -10 -5 -26 -8 -35 -9 -23 -17 -48 -16 -51 0
-1 -4 -14 -9 -28 -8 -20 -7 -26 4 -26 8 0 15 4 15 9 1 4 3 11 4 16 2 4 6 16
10 28 5 16 13 20 32 16 20 -4 24 -2 18 9 -7 11 -6 12 6 2 8 -7 21 -28 29 -48
7 -19 17 -35 22 -35 12 0 9 34 -4 49 -11 11 -10 12 1 6 9 -5 7 1 -4 19 -10 14
-14 26 -10 26 4 0 2 7 -5 15 -7 8 -10 15 -6 15 3 0 0 15 -8 34 -8 19 -12 37
-8 40 3 3 1 6 -5 6 -6 0 -10 7 -9 16 0 9 -4 19 -10 21 -6 2 -11 -2 -12 -9z"/>
<path d="M2282 358 c-7 -7 -12 -18 -12 -25 0 -18 27 -16 34 3 4 10 2 13 -6 8
-8 -5 -9 -2 -5 9 8 20 5 21 -11 5z"/>
<path d="M2320 351 c0 -5 3 -17 6 -26 5 -12 9 -14 14 -4 5 7 6 18 3 26 -6 15
-23 18 -23 4z"/>
<path d="M144 292 c4 -7 1 -12 -6 -12 -19 0 -20 -229 -1 -248 10 -11 17 -11
27 -3 11 9 15 9 18 0 3 -9 10 -8 28 2 30 18 54 39 43 39 -4 0 -1 4 6 9 19 12
20 133 1 156 -7 8 -9 15 -4 15 20 0 -35 29 -63 33 -18 3 -37 8 -44 13 -8 4
-10 3 -5 -4z m84 -62 c20 -21 23 -33 19 -77 -4 -62 -25 -90 -67 -91 l-30 -1 0
94 c0 94 3 103 40 101 8 -1 25 -12 38 -26z"/>
<path d="M350 290 c0 -6 -4 -9 -9 -5 -20 12 -35 -43 -16 -57 7 -5 6 -8 -1 -8
-12 0 -12 -89 0 -108 4 -6 4 -12 -1 -12 -4 0 -8 -14 -8 -30 -1 -17 3 -30 8
-30 4 0 6 -4 3 -8 -7 -12 58 -9 66 3 5 6 8 4 8 -5 0 -11 3 -10 11 4 14 23 -1
35 -41 30 -28 -3 -29 -3 -26 41 3 53 8 60 33 47 20 -11 46 -2 43 14 -2 15 -26
24 -49 19 -12 -2 -19 0 -16 6 4 5 2 9 -4 9 -10 0 -8 46 2 57 4 3 12 1 20 -5
16 -13 40 0 43 23 2 12 -3 16 -15 12 -10 -2 -26 0 -35 5 -10 6 -16 5 -16 -2z"/>
<path d="M976 288 c-9 -5 -20 -7 -24 -4 -4 2 -19 -12 -32 -32 -30 -42 -36
-126 -14 -171 13 -27 64 -70 64 -55 0 4 7 1 15 -6 11 -9 15 -9 15 -1 0 7 5 9
10 6 6 -3 10 -1 10 5 0 6 5 8 10 5 6 -3 10 1 10 10 0 9 5 13 10 10 6 -3 10 3
10 14 0 12 4 21 9 21 4 0 7 15 6 32 -4 50 -5 52 -12 45 -3 -4 -12 -2 -19 4 -8
7 -14 7 -19 -1 -3 -6 -10 -8 -15 -5 -4 3 -7 -3 -5 -12 2 -10 4 -21 4 -25 1 -3
10 -4 21 -1 28 7 26 -19 -2 -50 -24 -25 -60 -27 -81 -4 -20 21 -37 77 -24 77
8 0 8 3 2 8 -13 8 -12 18 3 54 10 25 52 58 52 41 0 -4 4 -2 8 5 7 10 15 6 35
-14 30 -29 43 -27 32 5 -8 27 -57 51 -79 39z"/>
<path d="M1680 287 c-13 -10 -15 -35 -14 -132 2 -142 1 -138 14 -130 6 3 10
28 10 56 0 27 3 49 8 49 4 0 16 -19 27 -43 24 -51 45 -70 62 -55 9 8 13 7 13
-3 1 -19 17 8 22 36 5 31 30 56 44 44 8 -7 14 -6 17 3 4 11 6 10 6 0 1 -7 5
-11 10 -8 5 3 11 -8 15 -25 6 -30 29 -62 38 -53 3 2 -7 40 -22 84 -15 44 -25
82 -22 85 3 3 0 5 -6 5 -7 0 -11 3 -10 8 5 16 -12 72 -22 72 -5 0 -10 -6 -10
-12 0 -7 -7 -26 -15 -41 -9 -18 -10 -25 -2 -20 9 5 9 3 1 -8 -7 -8 -15 -29
-19 -46 -3 -18 -12 -33 -18 -33 -7 0 -6 -4 3 -10 10 -6 11 -10 3 -10 -7 0 -13
-8 -13 -19 0 -10 -8 -25 -17 -32 -10 -8 -14 -9 -10 -2 4 6 3 14 -3 18 -6 3
-20 25 -31 48 -12 23 -18 39 -14 35 13 -13 37 22 42 62 6 39 -11 69 -40 74 -6
1 -17 4 -22 8 -6 3 -17 1 -25 -5z m50 -37 c14 0 19 -43 7 -59 -7 -9 -20 -17
-29 -17 -15 -2 -18 7 -18 43 0 37 3 44 16 39 9 -3 19 -6 24 -6z m156 -75 c11
-35 4 -47 -23 -38 -16 6 -17 39 -3 48 6 4 8 11 5 16 -4 5 -3 9 2 9 4 0 13 -16
19 -35z"/>
<path d="M2120 292 c0 -8 -5 -10 -12 -6 -8 5 -9 2 -5 -9 3 -9 2 -19 -2 -21 -5
-3 -5 -23 -1 -45 4 -25 3 -44 -4 -52 -8 -8 -8 -13 1 -16 9 -3 9 -12 2 -31 -7
-18 -7 -28 0 -30 8 -3 8 -10 0 -24 -9 -17 -8 -19 8 -16 15 3 18 12 17 56 -1
28 2 49 6 47 5 -3 12 0 15 6 4 5 13 8 20 5 17 -6 41 32 39 61 -2 33 -31 72
-51 69 -10 -2 -21 2 -25 8 -5 8 -8 7 -8 -2z m44 -48 c23 -22 20 -39 -9 -58
-22 -14 -25 -15 -26 -1 -1 8 -2 25 -3 38 -4 40 11 48 38 21z"/>
<path d="M2575 286 c-16 -11 -20 -27 -20 -80 -1 -39 3 -66 10 -66 6 0 7 -3 0
-8 -14 -10 -14 -72 -1 -72 6 0 4 -5 -4 -10 -8 -5 -10 -10 -5 -11 47 -5 82 -3
92 4 14 10 7 31 -8 22 -5 -4 -9 -2 -9 3 0 5 -11 8 -25 7 -21 -3 -24 1 -24 23
3 50 8 59 40 60 40 1 49 11 24 25 -25 15 -38 15 -47 3 -9 -13 -22 40 -14 60 4
11 15 14 35 11 19 -3 31 0 35 9 7 17 -3 22 -37 18 -15 -1 -25 1 -22 7 9 13 2
11 -20 -5z"/>
<path d="M3615 281 c-3 -12 -6 -47 -5 -79 1 -31 1 -61 0 -67 -5 -25 3 -91 11
-100 5 -5 9 13 9 48 0 31 4 57 8 57 5 0 19 -22 32 -50 13 -27 28 -50 34 -51 6
0 19 -2 28 -4 15 -3 32 20 26 35 -1 3 7 15 17 27 14 17 21 19 27 10 4 -6 8 -7
8 -2 0 6 8 11 18 12 13 1 22 -11 31 -43 13 -44 31 -60 31 -26 0 9 -14 57 -31
106 -17 50 -31 98 -32 108 -1 20 -23 24 -29 6 -3 -7 -4 -23 -3 -35 1 -12 -1
-20 -5 -18 -10 6 -32 -74 -24 -87 4 -6 3 -8 -3 -5 -5 3 -15 -15 -21 -40 -7
-25 -16 -42 -20 -39 -4 4 -7 11 -7 14 0 4 -10 22 -23 40 -13 17 -20 32 -15 32
4 0 1 4 -7 10 -12 8 -12 10 3 16 23 8 44 53 39 82 -4 26 -46 57 -63 47 -6 -4
-15 -2 -19 5 -6 9 -10 7 -15 -9z m55 -32 c0 -5 4 -8 9 -4 12 7 10 -36 -2 -52
-5 -7 -18 -13 -29 -13 -16 0 -18 6 -16 40 1 31 6 40 20 40 10 0 18 -5 18 -11z
m155 -49 c-4 -6 -2 -16 4 -23 5 -7 7 -17 3 -23 -10 -16 -42 -13 -42 3 0 21 19
53 31 53 6 0 7 -5 4 -10z"/>
<path d="M538 233 c-1 -30 0 -57 4 -59 3 -2 3 -17 -2 -33 -5 -19 -4 -33 3 -40
7 -7 7 -11 1 -11 -12 0 -11 -25 1 -53 6 -15 10 -16 16 -5 5 7 9 8 9 2 0 -12
45 -13 56 -1 4 4 12 7 18 7 6 0 4 -5 -4 -10 -8 -5 -10 -10 -5 -10 19 0 32 15
44 53 11 31 16 37 33 31 14 -4 18 -2 14 5 -5 8 -1 8 16 0 13 -5 24 -19 25 -30
1 -10 8 -28 16 -39 14 -20 15 -20 20 -1 2 11 1 23 -3 28 -8 10 -63 183 -63
201 0 6 -6 12 -14 12 -7 0 -13 -10 -13 -23 0 -13 -5 -28 -12 -35 -7 -7 -9 -12
-5 -12 4 0 2 -10 -5 -22 -7 -13 -11 -26 -10 -30 1 -4 -3 -20 -9 -35 -6 -15
-12 -36 -15 -47 -5 -25 -16 -34 -21 -19 -3 9 -10 10 -24 3 -13 -8 -19 -7 -19
0 0 6 -4 9 -9 6 -14 -9 -17 13 -16 116 1 69 -2 99 -11 102 -9 3 -13 -12 -16
-51z m207 -84 c1 -10 -6 -15 -19 -14 -26 2 -29 15 -15 51 l11 29 10 -25 c6
-14 12 -32 13 -41z"/>
<path d="M1117 283 c-3 -5 -4 -27 -4 -51 1 -23 -2 -42 -8 -42 -7 0 -7 -3 0 -8
6 -4 11 -31 12 -61 3 -91 62 -129 115 -76 24 24 25 30 24 132 -1 66 -5 108
-12 110 -7 2 -10 -23 -9 -74 1 -111 -6 -144 -32 -154 -16 -6 -28 -3 -44 10
-19 16 -21 27 -21 114 0 87 -8 122 -21 100z"/>
<path d="M1351 275 c-1 -8 -2 -24 -3 -35 -1 -11 -5 -20 -9 -20 -4 0 -10 -15
-14 -32 -9 -39 -7 -32 -24 -83 -8 -22 -18 -46 -24 -52 -6 -9 -6 -13 2 -13 7 0
9 -6 5 -12 -5 -10 -3 -10 7 0 8 7 19 27 25 45 7 18 17 31 23 29 6 -1 11 2 11
6 0 4 9 8 19 8 11 0 17 -4 15 -8 -3 -4 2 -8 11 -8 11 0 15 -7 13 -23 -3 -29
27 -65 36 -42 3 8 1 17 -5 20 -5 4 -7 11 -4 16 4 5 1 9 -5 9 -6 0 -9 4 -6 8 3
5 -6 40 -20 78 -14 38 -26 77 -25 86 0 22 -25 43 -28 23z m24 -90 c-2 -14 1
-25 6 -25 4 0 6 -6 3 -14 -8 -20 -44 -8 -44 14 0 15 24 50 34 50 2 0 2 -11 1
-25z"/>
<path d="M1514 282 c-7 -4 -10 -39 -10 -91 3 -121 -2 -143 -24 -131 -24 13
-33 -2 -16 -25 19 -27 54 -11 61 28 10 55 1 227 -11 219z"/>
<path d="M2239 290 c-5 -19 -4 -168 2 -165 3 3 5 -7 3 -20 -3 -34 26 -66 63
-71 26 -3 36 2 53 26 12 17 19 30 15 30 -3 0 -1 9 5 20 8 14 8 20 0 20 -6 0
-8 5 -4 12 13 21 11 137 -3 142 -16 6 -23 -5 -19 -30 2 -10 10 -18 17 -16 10
2 10 -1 -2 -10 -10 -9 -15 -29 -14 -63 2 -62 -18 -106 -45 -102 -36 6 -44 24
-47 119 -1 50 -7 96 -13 102 -5 5 -11 8 -11 6z"/>
<path d="M2430 165 c0 -83 4 -126 12 -131 7 -5 8 -3 3 6 -6 10 -4 11 6 4 18
-11 40 -12 62 -1 14 6 15 10 5 21 -7 8 -22 12 -33 10 -10 -2 -22 0 -25 5 -3 5
-5 52 -4 105 1 71 -3 96 -13 100 -10 4 -13 -19 -13 -119z"/>
<path d="M2704 278 c-9 -14 -8 -209 0 -229 7 -16 43 -18 67 -3 8 4 9 3 5 -4
-4 -7 -3 -12 2 -12 14 0 22 40 9 41 -7 1 -23 2 -36 2 -20 2 -25 8 -27 34 -1
18 2 35 7 39 5 3 7 10 4 15 -4 5 4 5 19 0 29 -12 50 6 36 29 -7 11 -10 12 -10
2 0 -8 -5 -10 -12 -5 -13 7 -18 9 -37 12 -5 0 -9 14 -9 30 1 23 5 28 27 29 46
0 50 2 45 16 -6 17 -81 20 -90 4z"/>
<path d="M2926 268 c2 -13 6 -35 9 -50 2 -14 8 -34 13 -45 6 -10 10 -20 10
-23 0 -3 5 -24 11 -48 7 -23 9 -47 6 -52 -3 -5 0 -12 6 -16 8 -4 9 -3 5 4 -4
7 -2 12 4 12 6 0 8 5 5 10 -3 6 -2 10 3 10 6 0 9 13 8 29 -1 17 2 28 6 25 6
-4 13 39 10 67 -1 3 5 6 12 6 10 0 16 -18 19 -64 0 -7 3 -13 6 -13 6 0 11 -26
14 -67 0 -14 16 -18 18 -5 0 4 3 16 5 27 3 11 6 26 6 33 1 6 5 12 9 12 4 0 6
11 4 25 -1 14 1 25 5 25 4 0 7 6 8 13 2 22 7 42 15 55 5 6 5 12 1 12 -3 0 -1
6 5 14 15 17 1 28 -19 15 -8 -5 -11 -9 -6 -9 5 0 3 -7 -4 -15 -7 -8 -10 -15
-7 -15 4 0 0 -17 -7 -37 -7 -21 -12 -46 -10 -55 1 -10 -2 -18 -7 -18 -11 0
-17 13 -22 50 -2 14 -7 32 -10 40 -3 8 -7 26 -9 40 -3 26 -20 31 -26 8 -2 -9
0 -8 7 2 6 8 11 10 11 5 0 -6 -5 -16 -12 -23 -12 -12 -15 -22 -22 -77 -2 -17
-10 -31 -19 -33 -10 -2 -14 3 -13 14 4 25 -29 127 -42 132 -7 2 -9 -6 -6 -20z"/>
<path d="M3210 218 c-13 -40 -28 -79 -33 -85 -6 -9 -5 -13 4 -13 9 0 10 -3 4
-8 -17 -12 -34 -58 -25 -71 9 -15 22 1 27 34 3 19 27 38 48 40 15 2 45 -14 44
-23 -4 -25 16 -53 35 -51 11 1 30 -2 40 -6 14 -6 24 -3 36 13 14 17 17 41 16
129 -1 128 -20 145 -23 20 -1 -45 -2 -92 -2 -104 -1 -18 -7 -23 -26 -23 -14 0
-25 -4 -25 -10 0 -27 -17 -5 -29 38 -7 26 -16 56 -21 67 -13 33 -22 59 -26 85
-10 48 -21 40 -44 -32z m43 -45 c6 -30 4 -33 -17 -31 -13 1 -23 7 -21 13 15
71 27 77 38 18z"/>
<path d="M3459 289 c-1 -2 -2 -59 -3 -126 -1 -94 1 -123 11 -123 12 0 17 24
15 75 -1 35 -2 89 -1 110 1 26 -5 53 -14 61 -4 4 -8 5 -8 3z"/>
<path d="M3534 276 c-3 -9 -4 -34 -2 -56 2 -22 0 -40 -5 -40 -4 0 -5 -5 -2
-10 4 -6 6 -37 6 -70 0 -33 4 -62 8 -65 11 -6 24 42 16 55 -4 6 0 10 7 10 8 0
9 3 3 8 -12 9 -15 72 -3 72 5 0 5 8 0 18 -5 9 -7 31 -5 49 3 34 -13 55 -23 29z"/>
<path d="M1586 170 c1 -80 -1 -108 -10 -103 -6 4 -5 -1 2 -10 8 -9 10 -22 6
-29 -6 -11 -5 -11 8 0 22 17 26 252 5 252 -10 0 -13 -25 -11 -110z"/>
</g>
</svg>
